<?xml version="1.0" encoding="UTF-8"?>
<svg width="64px" height="64px" viewBox="0 0 64 64" version="1.1" xmlns="http://www.w3.org/2000/svg" xmlns:xlink="http://www.w3.org/1999/xlink">
    <!-- Generator: Sketch 48.1 (47250) - http://www.bohemiancoding.com/sketch -->
    <title>Square@64x64</title>
    <desc>Created with Sketch.</desc>
    <defs></defs>
    <g id="Page-1" stroke="none" stroke-width="1" fill="none" fill-rule="evenodd">
        <g id="Square@64x64" fill="#000000">
            <path d="M45.1171875,43.296875 C44.3203085,43.5781264 43.4843794,43.8046866 42.609375,43.9765625 C41.7343706,44.1484384 41.0468775,44.234375 40.546875,44.234375 C39.2343684,44.234375 38.2421909,43.8554725 37.5703125,43.0976562 C36.8984341,42.33984 36.4296888,40.9843848 36.1640625,39.03125 C35.7578105,39.7031284 35.2617217,40.3945277 34.6757812,41.1054688 C34.0898408,41.8164098 33.4765657,42.3906228 32.8359375,42.828125 C32.1015588,43.3437526 31.3593788,43.7382799 30.609375,44.0117188 C29.8593712,44.2851576 28.9531303,44.421875 27.890625,44.421875 C26.5937435,44.421875 25.3476622,44.1328154 24.1523438,43.5546875 C22.9570253,42.9765596 21.8984421,42.1484429 20.9765625,41.0703125 C20.0546829,39.9921821 19.3281277,38.6953201 18.796875,37.1796875 C18.2656223,35.6640549 18,33.9921966 18,32.1640625 C18,30.4921791 18.2812472,28.9062575 18.84375,27.40625 C19.4062528,25.9062425 20.1953074,24.5859432 21.2109375,23.4453125 C22.1796923,22.3671821 23.3320246,21.5234405 24.6679688,20.9140625 C26.0039129,20.3046845 27.3906178,20 28.828125,20 C30.6875093,20 32.2656185,20.4492143 33.5625,21.3476562 C34.8593815,22.2460982 35.812497,23.499992 36.421875,25.109375 L37.0078125,20.6328125 L41.3671875,20.6328125 C41.257812,21.742193 41.0195331,23.3984265 40.6523438,25.6015625 C40.2851544,27.8046985 39.8593774,30.2109245 39.375,32.8203125 C39.4218752,35.117199 39.6835914,37.0351486 40.1601562,38.5742188 C40.6367211,40.1132889 41.2499962,41.1015603 42,41.5390625 C42.2343762,41.6796882 42.6796842,41.7578124 43.3359375,41.7734375 C43.9921908,41.7890626 44.5859348,41.796875 45.1171875,41.796875 L45.1171875,43.296875 Z M35.71875,31.484375 C35.6093745,30.3437443 35.4296887,29.1875059 35.1796875,28.015625 C34.9296863,26.8437441 34.55469,25.804692 34.0546875,24.8984375 C33.5703101,23.9765579 32.9414101,23.2304716 32.1679688,22.6601562 C31.3945274,22.0898409 30.4375057,21.8046875 29.296875,21.8046875 C27.4531158,21.8046875 25.9257873,22.7499905 24.7148438,24.640625 C23.5039002,26.5312595 22.8984375,29.1327959 22.8984375,32.4453125 C22.8984375,33.7109438 23.0312487,34.9101506 23.296875,36.0429688 C23.5625013,37.1757869 23.9374976,38.1562459 24.421875,38.984375 C24.9375026,39.8593794 25.6132771,40.5664036 26.4492188,41.1054688 C27.2851604,41.6445339 28.2812442,41.9140625 29.4375,41.9140625 C31.3437595,41.9140625 32.8281197,41.0586023 33.890625,39.3476562 C34.9531303,37.6367102 35.5624992,35.0156427 35.71875,31.484375 Z" id="α"></path>
        </g>
    </g>
</svg>