<?xml version="1.0" encoding="UTF-8"?>
<svg width="64px" height="64px" viewBox="0 0 64 64" version="1.1" xmlns="http://www.w3.org/2000/svg" xmlns:xlink="http://www.w3.org/1999/xlink">
    <!-- Generator: Sketch 48.1 (47250) - http://www.bohemiancoding.com/sketch -->
    <title>Square@64x64</title>
    <desc>Created with Sketch.</desc>
    <defs></defs>
    <g id="Page-1" stroke="none" stroke-width="1" fill="none" fill-rule="evenodd">
        <g id="Square@64x64" fill="#000000">
            <path d="M43.5703125,38.03125 C43.5703125,39.7187584 43.2890653,41.3007739 42.7265625,42.7773438 C42.1640597,44.2539136 41.3984423,45.5078073 40.4296875,46.5390625 C39.4140574,47.648443 38.2382879,48.5078095 36.9023438,49.1171875 C35.5663996,49.7265655 34.0312587,50.03125 32.296875,50.03125 C30.6406167,50.03125 29.1054758,49.7265655 27.6914062,49.1171875 C26.2773367,48.5078095 25.0781299,47.6718803 24.09375,46.609375 C23.1093701,45.5468697 22.3476589,44.2890698 21.8085938,42.8359375 C21.2695286,41.3828052 21,39.8203209 21,38.1484375 C21,36.4609291 21.2539037,34.9882875 21.7617188,33.7304688 C22.2695338,32.47265 22.9843704,31.343755 23.90625,30.34375 C24.7968795,29.3749952 25.863275,28.593753 27.1054688,28 C28.3476625,27.406247 29.6562431,27.0000011 31.03125,26.78125 L31.03125,26.640625 C28.2812362,25.64062 26.2812562,24.5937555 25.03125,23.5 C23.7812438,22.4062445 23.15625,21.007821 23.15625,19.3046875 C23.15625,18.601559 23.3320295,17.8867224 23.6835938,17.1601562 C24.035158,16.4335901 24.609371,15.7500032 25.40625,15.109375 C26.1718788,14.499997 27.1953061,13.9960957 28.4765625,13.5976562 C29.7578189,13.1992168 31.2812412,13 33.046875,13 C35.7343884,13 37.8828045,13.4765577 39.4921875,14.4296875 C41.1015705,15.3828173 41.90625,16.6406172 41.90625,18.203125 C41.90625,19.0781294 41.7187519,19.7890598 41.34375,20.3359375 C40.9687481,20.8828152 40.3593792,21.15625 39.515625,21.15625 C38.5781203,21.15625 37.8750023,20.9375022 37.40625,20.5 C36.9374977,20.0624978 36.703125,19.5625028 36.703125,19 C36.703125,18.3437467 36.777343,17.7226592 36.9257812,17.1367188 C37.0742195,16.5507783 37.1796872,16.0781268 37.2421875,15.71875 C36.945311,15.4843738 36.445316,15.265626 35.7421875,15.0625 C35.039059,14.859374 34.1640677,14.7578125 33.1171875,14.7578125 C31.61718,14.7578125 30.3554739,15.1835895 29.3320312,16.0351562 C28.3085886,16.886723 27.796875,17.8906192 27.796875,19.046875 C27.796875,20.3281314 28.3242135,21.4062456 29.3789062,22.28125 C30.433599,23.1562544 32.3827983,24.3593673 35.2265625,25.890625 C36.8515706,26.7656294 38.2187445,27.6562455 39.328125,28.5625 C40.4375055,29.4687545 41.3046844,30.4062452 41.9296875,31.375 C42.5546906,32.3593799 42.9843738,33.3828072 43.21875,34.4453125 C43.4531262,35.5078178 43.5703125,36.7031184 43.5703125,38.03125 Z M38.6953125,38.21875 C38.6953125,35.4843613 38.2031299,33.2812584 37.21875,31.609375 C36.2343701,29.9374916 34.7421975,28.7890656 32.7421875,28.1640625 C30.7265524,28.1640625 29.0781314,29.0585848 27.796875,30.8476562 C26.5156186,32.6367277 25.875,35.0937344 25.875,38.21875 C25.875,39.5937569 26.0078112,40.8749941 26.2734375,42.0625 C26.5390638,43.2500059 26.9453098,44.3124953 27.4921875,45.25 C28.0078151,46.1562545 28.6679647,46.8828098 29.4726562,47.4296875 C30.2773478,47.9765652 31.2031198,48.25 32.25,48.25 C33.3125053,48.25 34.2539021,47.9843777 35.0742188,47.453125 C35.8945354,46.9218723 36.5781223,46.1875047 37.125,45.25 C37.6562527,44.2968702 38.05078,43.2265684 38.3085938,42.0390625 C38.5664075,40.8515566 38.6953125,39.5781318 38.6953125,38.21875 Z" id="δ"></path>
        </g>
    </g>
</svg>