<?xml version="1.0" encoding="UTF-8"?>
<svg width="64px" height="64px" viewBox="0 0 64 64" version="1.1" xmlns="http://www.w3.org/2000/svg" xmlns:xlink="http://www.w3.org/1999/xlink">
    <!-- Generator: Sketch 48.1 (47250) - http://www.bohemiancoding.com/sketch -->
    <title>Square@64x64</title>
    <desc>Created with Sketch.</desc>
    <defs></defs>
    <g id="Page-1" stroke="none" stroke-width="1" fill="none" fill-rule="evenodd">
        <g id="Square@64x64" fill="#000000">
            <path d="M35.46875,44.015625 C35.46875,45.2031309 35.3984382,46.1445278 35.2578125,46.8398438 C35.1171868,47.5351597 34.9296887,48.0468734 34.6953125,48.375 C34.4609363,48.7031266 34.1992202,48.914062 33.9101562,49.0078125 C33.6210923,49.101563 33.2890644,49.1484375 32.9140625,49.1484375 C32.1171835,49.1484375 31.5117208,48.8945338 31.0976562,48.3867188 C30.6835917,47.8789037 30.4765625,47.1171926 30.4765625,46.1015625 C30.4765625,45.007807 30.5742178,43.8046941 30.7695312,42.4921875 C30.9648447,41.1796809 31.2499981,39.8125071 31.625,38.390625 C30.421869,34.796857 29.2500057,31.6836069 28.109375,29.0507812 C26.9687443,26.4179556 25.593758,23.2734558 23.984375,19.6171875 C23.6249982,18.8203085 23.1250032,18.2617204 22.484375,17.9414062 C21.8437468,17.6210921 21.0156301,17.4375002 20,17.390625 L20,15.8671875 L26.9609375,15.3515625 L27.2890625,15.6796875 C27.7109396,16.773443 28.2812464,18.1210857 29,19.7226562 C29.7187536,21.3242268 30.4609337,23.0624906 31.2265625,24.9375 C31.8203155,26.3750072 32.4335906,28.0546779 33.0664062,29.9765625 C33.6992219,31.8984471 34.070312,33.3906197 34.1796875,34.453125 C34.6953151,33.0937432 35.3203088,31.6953197 36.0546875,30.2578125 C36.7890662,28.8203053 37.3359357,27.6796917 37.6953125,26.8359375 C38.0859395,25.9140579 38.3710929,25.1640654 38.5507812,24.5859375 C38.7304696,24.0078096 38.8203125,23.4765649 38.8203125,22.9921875 C38.8203125,22.0546828 38.7031262,21.0937549 38.46875,20.109375 C38.2343738,19.1249951 38.1171875,18.3203156 38.1171875,17.6953125 C38.1171875,17.0078091 38.3749974,16.3867215 38.890625,15.8320312 C39.4062526,15.277341 40.0703084,15 40.8828125,15 C41.7109416,15 42.3671851,15.2343727 42.8515625,15.703125 C43.3359399,16.1718773 43.578125,16.851558 43.578125,17.7421875 C43.578125,18.7265674 43.3398461,19.7812444 42.8632812,20.90625 C42.3867164,22.0312556 41.8359406,23.2109313 41.2109375,24.4453125 C40.2734328,26.3046968 39.1757875,28.3749886 37.9179688,30.65625 C36.66015,32.9375114 35.6093792,35.2187386 34.765625,37.5 C34.9218758,38.890632 35.0781242,40.1484319 35.234375,41.2734375 C35.3906258,42.3984431 35.46875,43.3124965 35.46875,44.015625 Z" id="γ"></path>
        </g>
    </g>
</svg>