<?xml version="1.0" encoding="UTF-8"?>
<svg width="64px" height="64px" viewBox="0 0 64 64" version="1.1" xmlns="http://www.w3.org/2000/svg" xmlns:xlink="http://www.w3.org/1999/xlink">
    <!-- Generator: Sketch 48.1 (47250) - http://www.bohemiancoding.com/sketch -->
    <title>Square@64x64</title>
    <desc>Created with Sketch.</desc>
    <defs></defs>
    <g id="Page-1" stroke="none" stroke-width="1" fill="none" fill-rule="evenodd">
        <g id="Square@64x64" fill="#000000">
            <path d="M44.1484375,42.7578125 C43.242183,43.1171893 42.3671917,43.3984365 41.5234375,43.6015625 C40.6796833,43.8046885 39.8515666,43.90625 39.0390625,43.90625 C38.5234349,43.90625 38.062502,43.8867189 37.65625,43.8476562 C37.249998,43.8085936 36.8281272,43.6640637 36.390625,43.4140625 C35.984373,43.1953114 35.5703146,42.8437524 35.1484375,42.359375 C34.7265604,41.8749976 34.2890648,41.2265666 33.8359375,40.4140625 C33.0859338,39.0703058 32.3007854,37.6132891 31.4804688,36.0429688 C30.6601521,34.4726484 29.9375031,33.1250056 29.3125,32 L27.015625,34.5546875 L27.015625,43.4609375 L22.65625,43.4609375 L22.65625,25.25 C22.65625,24.7187473 22.5429699,24.230471 22.3164062,23.7851562 C22.0898426,23.3398415 21.7734395,22.9765639 21.3671875,22.6953125 C21.070311,22.5078116 20.718752,22.3710942 20.3125,22.2851562 C19.906248,22.1992183 19.4687523,22.1406252 19,22.109375 L19,20.5859375 L26.6875,20.0703125 L27.015625,20.3984375 L27.015625,32.234375 C28.2656312,30.6718672 29.5898368,29.0312586 30.9882812,27.3125 C32.3867257,25.5937414 33.6796816,24.0781316 34.8671875,22.765625 C35.8203173,21.7031197 36.6132781,20.9765645 37.2460938,20.5859375 C37.8789094,20.1953105 38.5859336,20 39.3671875,20 C40.2265668,20 40.9140599,20.2656223 41.4296875,20.796875 C41.9453151,21.3281277 42.203125,22.039058 42.203125,22.9296875 C42.203125,23.5859408 41.9570337,24.1679662 41.4648438,24.6757812 C40.9726538,25.1835963 40.328129,25.4375 39.53125,25.4375 C39.0937478,25.4375 38.5507845,25.3320323 37.9023438,25.1210938 C37.253903,24.9101552 36.6718776,24.6875012 36.15625,24.453125 C35.4999967,24.9062523 34.8828154,25.4921839 34.3046875,26.2109375 C33.7265596,26.9296911 33.0312541,27.7343705 32.21875,28.625 C33.3593807,30.7031354 34.3476521,32.4999924 35.1835938,34.015625 C36.0195354,35.5312576 36.8124962,36.8828066 37.5625,38.0703125 C38.2968787,39.2109432 39.0234339,40.058591 39.7421875,40.6132812 C40.4609411,41.1679715 41.218746,41.4453125 42.015625,41.4453125 C42.3281266,41.4453125 42.7187477,41.4218752 43.1875,41.375 C43.6562523,41.3281248 43.9765616,41.2890627 44.1484375,41.2578125 L44.1484375,42.7578125 Z" id="κ"></path>
        </g>
    </g>
</svg>