<?xml version="1.0" encoding="UTF-8"?>
<svg width="64px" height="64px" viewBox="0 0 64 64" version="1.1" xmlns="http://www.w3.org/2000/svg" xmlns:xlink="http://www.w3.org/1999/xlink">
    <!-- Generator: Sketch 48.1 (47250) - http://www.bohemiancoding.com/sketch -->
    <title>Square@64x64</title>
    <desc>Created with Sketch.</desc>
    <defs></defs>
    <g id="Page-1" stroke="none" stroke-width="1" fill="none" fill-rule="evenodd">
        <g id="Square@64x64" fill="#000000">
            <path d="M38.265625,42.9921875 C37.5312463,43.2421887 36.8164097,43.4531241 36.1210938,43.625 C35.4257778,43.7968759 34.5312555,43.8828125 33.4375,43.8828125 C31.9999928,43.8828125 30.9023475,43.4453169 30.1445312,42.5703125 C29.386715,41.6953081 29.0078125,40.4453206 29.0078125,38.8203125 L29.0546875,25.1328125 C29.0546875,24.6171849 28.9492198,24.156252 28.7382812,23.75 C28.5273427,23.343748 28.2265645,23.0000014 27.8359375,22.71875 C27.539061,22.5312491 27.1093778,22.3789068 26.546875,22.2617188 C25.9843722,22.1445307 25.4687523,22.0703127 25,22.0390625 L25,20.515625 L33.0625,20 L33.390625,20.328125 L33.390625,38.4921875 C33.390625,39.4921925 33.6914032,40.2539036 34.2929688,40.7773438 C34.8945343,41.3007839 35.7109323,41.5625 36.7421875,41.5625 C36.9765637,41.5625 37.2265612,41.5546876 37.4921875,41.5390625 C37.7578138,41.5234374 38.0156238,41.5078126 38.265625,41.4921875 L38.265625,42.9921875 Z" id="ι"></path>
        </g>
    </g>
</svg>