<?xml version="1.0" encoding="UTF-8"?>
<svg width="64px" height="64px" viewBox="0 0 64 64" version="1.1" xmlns="http://www.w3.org/2000/svg" xmlns:xlink="http://www.w3.org/1999/xlink">
    <!-- Generator: Sketch 48.1 (47250) - http://www.bohemiancoding.com/sketch -->
    <title>Square@64x64</title>
    <desc>Created with Sketch.</desc>
    <defs></defs>
    <g id="Page-1" stroke="none" stroke-width="1" fill="none" fill-rule="evenodd">
        <g id="Square@64x64" fill="#000000">
            <path d="M27.1953125,20.3515625 L27.5234375,20.6796875 C27.632813,21.2265652 27.761718,21.8085907 27.9101562,22.4257812 C28.0585945,23.0429718 28.2578112,23.6796842 28.5078125,24.3359375 C29.2265661,26.242197 30.1210884,28.5976422 31.1914062,31.4023438 C32.2617241,34.2070453 33.148434,36.5156159 33.8515625,38.328125 C34.4453155,37.1093689 35.0117161,35.9375056 35.5507812,34.8125 C36.0898464,33.6874944 36.5546855,32.6953168 36.9453125,31.8359375 C37.3671896,30.8828077 37.6679679,30.1132842 37.8476562,29.5273438 C38.0273446,28.9414033 38.1171875,28.4140648 38.1171875,27.9453125 C38.1171875,26.648431 38.0429695,25.6523472 37.8945312,24.9570312 C37.746093,24.2617153 37.671875,23.515629 37.671875,22.71875 C37.671875,22.0312466 37.9570284,21.4062528 38.5273438,20.84375 C39.0976591,20.2812472 39.781246,20 40.578125,20 C41.3906291,20 42.019529,20.2265602 42.4648438,20.6796875 C42.9101585,21.1328148 43.1328125,21.7812458 43.1328125,22.625 C43.1328125,23.6562552 42.7929721,24.8124936 42.1132812,26.09375 C41.4335904,27.3750064 40.8671898,28.4687455 40.4140625,29.375 C39.8203095,30.5625059 39.0898481,31.9726481 38.2226562,33.6054688 C37.3554644,35.2382894 36.4843794,36.8906166 35.609375,38.5625 C35.1718728,39.3906291 34.7968766,40.203121 34.484375,41 C34.1718734,41.796879 33.8046896,42.7812441 33.3828125,43.953125 L31.34375,43.953125 C30.0312434,40.5781081 28.8320367,37.4375145 27.7460938,34.53125 C26.6601508,31.6249855 25.3750074,28.320331 23.890625,24.6171875 C23.5781234,23.8203085 23.0859409,23.2617204 22.4140625,22.9414062 C21.7421841,22.6210921 20.9375047,22.4375002 20,22.390625 L20,20.8671875 L27.1953125,20.3515625 Z" id="ν"></path>
        </g>
    </g>
</svg>