<?xml version="1.0" encoding="UTF-8"?>
<svg width="64px" height="64px" viewBox="0 0 64 64" version="1.1" xmlns="http://www.w3.org/2000/svg" xmlns:xlink="http://www.w3.org/1999/xlink">
    <!-- Generator: Sketch 48.1 (47250) - http://www.bohemiancoding.com/sketch -->
    <title>Square@64x64</title>
    <desc>Created with Sketch.</desc>
    <defs></defs>
    <g id="Page-1" stroke="none" stroke-width="1" fill="none" fill-rule="evenodd">
        <g id="Square@64x64" fill="#000000">
            <path d="M39.1875,18.09375 C40.1406298,19.1250052 40.8789036,20.3554616 41.4023438,21.7851562 C41.9257839,23.2148509 42.1875,24.9218651 42.1875,26.90625 C42.1875,28.6562587 41.890628,30.3124922 41.296875,31.875 C40.703122,33.4375078 39.8906302,34.773432 38.859375,35.8828125 C37.8281198,36.992193 36.6757876,37.8476532 35.4023438,38.4492188 C34.1288999,39.0507843 32.7656323,39.3515625 31.3125,39.3515625 C29.9687433,39.3515625 28.8125048,39.1875016 27.84375,38.859375 C26.8749952,38.5312484 26.1171902,38.171877 25.5703125,37.78125 L25.3828125,37.78125 L25.3828125,49.1484375 L21,49.1484375 L21,25.921875 C21,24.1562412 21.1953105,22.6835996 21.5859375,21.5039062 C21.9765645,20.3242129 22.7031197,19.1562558 23.765625,18 C24.6875046,16.999995 25.8085871,16.2500025 27.1289062,15.75 C28.4492254,15.2499975 29.9921787,15 31.7578125,15 C33.25782,15 34.6406187,15.2617161 35.90625,15.7851562 C37.1718813,16.3085964 38.2656204,17.0781199 39.1875,18.09375 Z M37.3359375,26.859375 C37.3359375,24.6249888 37.1445332,22.8554753 36.7617188,21.5507812 C36.3789043,20.2460872 35.8828155,19.2343786 35.2734375,18.515625 C34.6796845,17.8124965 34.0351597,17.3515636 33.3398438,17.1328125 C32.6445278,16.9140614 31.9687533,16.8046875 31.3125,16.8046875 C30.5624962,16.8046875 29.8710969,16.9140614 29.2382812,17.1328125 C28.6054656,17.3515636 28.0312526,17.7187474 27.515625,18.234375 C26.7968714,18.9531286 26.2773454,19.812495 25.9570312,20.8125 C25.6367171,21.812505 25.4531252,23.2734279 25.40625,25.1953125 C25.3906249,26.0546918 25.3750001,26.8124967 25.359375,27.46875 C25.3437499,28.1250033 25.3359375,28.7734343 25.3359375,29.4140625 C25.3359375,30.2734418 25.3437499,31.0234343 25.359375,31.6640625 C25.3750001,32.3046907 25.3828125,33.0312459 25.3828125,33.84375 C25.679689,34.7968798 26.3398386,35.6679648 27.3632812,36.4570312 C28.3867239,37.2460977 29.5859306,37.640625 30.9609375,37.640625 C32.7890716,37.640625 34.3085877,36.6875095 35.5195312,34.78125 C36.7304748,32.8749905 37.3359375,30.2343919 37.3359375,26.859375 Z" id="Ï"></path>
        </g>
    </g>
</svg>