<?xml version="1.0" encoding="UTF-8"?>
<svg width="64px" height="64px" viewBox="0 0 64 64" version="1.1" xmlns="http://www.w3.org/2000/svg" xmlns:xlink="http://www.w3.org/1999/xlink">
    <!-- Generator: Sketch 48.1 (47250) - http://www.bohemiancoding.com/sketch -->
    <title>Square@64x64</title>
    <desc>Created with Sketch.</desc>
    <defs></defs>
    <g id="Page-1" stroke="none" stroke-width="1" fill="none" fill-rule="evenodd">
        <g id="Square@64x64" fill="#000000">
            <path d="M35.171875,39.546875 C35.7187527,38.4999948 36.11328,37.3828184 36.3554688,36.1953125 C36.5976575,35.0078066 36.71875,33.6484452 36.71875,32.1171875 C36.71875,30.9140565 36.6054699,29.6601628 36.3789062,28.3554688 C36.1523426,27.0507747 35.8125023,25.9687543 35.359375,25.109375 C34.8437474,24.1562452 34.1953164,23.4101589 33.4140625,22.8710938 C32.6328086,22.3320286 31.6171937,22.0625 30.3671875,22.0625 C29.1015562,22.0625 28.0507854,22.3632782 27.2148438,22.9648438 C26.3789021,23.5664093 25.71094,24.3437452 25.2109375,25.296875 C24.7421852,26.1718794 24.3984386,27.1914004 24.1796875,28.3554688 C23.9609364,29.5195371 23.8515625,30.7343687 23.8515625,32 C23.8515625,33.3750069 23.972655,34.7148372 24.2148438,36.0195312 C24.4570325,37.3242253 24.8437473,38.4765575 25.375,39.4765625 C25.9062527,40.4765675 26.5742147,41.2617159 27.3789062,41.8320312 C28.1835978,42.4023466 29.1796816,42.6875 30.3671875,42.6875 C31.4453179,42.6875 32.3906209,42.4023466 33.203125,41.8320312 C34.0156291,41.2617159 34.6718725,40.5000048 35.171875,39.546875 Z M35.1015625,20.6796875 L44.359375,20.6796875 L44.359375,23.5390625 L37.65625,23.5390625 L37.65625,23.65625 C38.9375064,24.7187553 39.9101529,25.9804614 40.5742188,27.4414062 C41.2382846,28.9023511 41.5703125,30.5156162 41.5703125,32.28125 C41.5703125,33.8593829 41.3164088,35.3906176 40.8085938,36.875 C40.3007787,38.3593824 39.5625048,39.6562445 38.59375,40.765625 C37.593745,41.9062557 36.3984445,42.8085904 35.0078125,43.4726562 C33.6171805,44.1367221 31.9687595,44.46875 30.0625,44.46875 C28.5937427,44.46875 27.1953191,44.191409 25.8671875,43.6367188 C24.5390559,43.0820285 23.3593802,42.2734428 22.328125,41.2109375 C21.3124949,40.1640573 20.5039093,38.8867263 19.9023438,37.3789062 C19.3007782,35.8710862 19,34.1796969 19,32.3046875 C19,30.4296781 19.2656223,28.7617261 19.796875,27.3007812 C20.3281277,25.8398364 21.093745,24.5468806 22.09375,23.421875 C23.0625048,22.3593697 24.2656178,21.5234405 25.703125,20.9140625 C27.1406322,20.3046845 28.710929,20 30.4140625,20 C31.304692,20 32.0976528,20.054687 32.7929688,20.1640625 C33.4882847,20.273438 34.2578083,20.4453113 35.1015625,20.6796875 Z" id="σ"></path>
        </g>
    </g>
</svg>