<?xml version="1.0" encoding="UTF-8"?>
<svg width="64px" height="64px" viewBox="0 0 64 64" version="1.1" xmlns="http://www.w3.org/2000/svg" xmlns:xlink="http://www.w3.org/1999/xlink">
    <!-- Generator: Sketch 48.1 (47250) - http://www.bohemiancoding.com/sketch -->
    <title>Square@64x64</title>
    <desc>Created with Sketch.</desc>
    <defs></defs>
    <g id="Page-1" stroke="none" stroke-width="1" fill="none" fill-rule="evenodd">
        <g id="Square@64x64" fill="#000000">
            <path d="M41.15625,19.1875 C41.9843791,20.9218837 42.593748,22.7929587 42.984375,24.8007812 C43.375002,26.8086038 43.5703125,29.0390502 43.5703125,31.4921875 C43.5703125,33.7734489 43.3710957,35.9804581 42.9726562,38.1132812 C42.5742168,40.2461044 41.9609416,42.1562416 41.1328125,43.84375 C40.1796827,45.7812597 38.9726636,47.2968695 37.5117188,48.390625 C36.0507739,49.4843805 34.3046977,50.03125 32.2734375,50.03125 C30.2265523,50.03125 28.4687573,49.476568 27,48.3671875 C25.5312427,47.257807 24.3437545,45.7500095 23.4375,43.84375 C22.5781207,42.0624911 21.9570332,40.1836036 21.5742188,38.2070312 C21.1914043,36.2304589 21,34.0000124 21,31.515625 C21,28.9999874 21.1796857,26.7812596 21.5390625,24.859375 C21.8984393,22.9374904 22.5156206,21.0468843 23.390625,19.1875 C24.2812545,17.3124906 25.476555,15.8125056 26.9765625,14.6875 C28.47657,13.5624944 30.2499898,13 32.296875,13 C34.3593853,13 36.1249927,13.5624944 37.59375,14.6875 C39.0625073,15.8125056 40.2499955,17.3124906 41.15625,19.1875 Z M38.7421875,29.828125 C38.7265624,27.0624862 38.5507829,24.7187596 38.2148438,22.796875 C37.8789046,20.8749904 37.4140655,19.3203184 36.8203125,18.1328125 C36.2421846,16.9453066 35.5625039,16.0898464 34.78125,15.5664062 C33.9999961,15.0429661 33.164067,14.78125 32.2734375,14.78125 C31.3515579,14.78125 30.5156288,15.0312475 29.765625,15.53125 C29.0156212,16.0312525 28.3359405,16.8906189 27.7265625,18.109375 C27.1484346,19.2812559 26.6914079,20.8320216 26.3554688,22.7617188 C26.0195296,24.6914159 25.8437501,27.0468611 25.828125,29.828125 L38.7421875,29.828125 Z M36.84375,44.875 C37.437503,43.6249938 37.9023421,42.0468845 38.2382812,40.140625 C38.5742204,38.2343655 38.7421875,35.7656402 38.7421875,32.734375 L38.7421875,31.9140625 L25.828125,31.9140625 L25.828125,32.734375 C25.828125,35.7187649 25.9921859,38.1874902 26.3203125,40.140625 C26.6484391,42.0937598 27.1015596,43.6796814 27.6796875,44.8984375 C28.2265652,46.0546933 28.8945273,46.9023411 29.6835938,47.4414062 C30.4726602,47.9804714 31.3359328,48.25 32.2734375,48.25 C33.164067,48.25 34.0078085,47.9882839 34.8046875,47.4648438 C35.6015665,46.9414036 36.2812472,46.078131 36.84375,44.875 Z" id="θ"></path>
        </g>
    </g>
</svg>