<?xml version="1.0" encoding="UTF-8"?>
<svg width="64px" height="64px" viewBox="0 0 64 64" version="1.1" xmlns="http://www.w3.org/2000/svg" xmlns:xlink="http://www.w3.org/1999/xlink">
    <!-- Generator: Sketch 48.1 (47250) - http://www.bohemiancoding.com/sketch -->
    <title>Square@64x64</title>
    <desc>Created with Sketch.</desc>
    <defs></defs>
    <g id="Page-1" stroke="none" stroke-width="1" fill="none" fill-rule="evenodd">
        <g id="Square@64x64" fill="#000000">
            <path d="M41.078125,11.25 L41.078125,13.8984375 L38.03125,13.8984375 C36.9218695,13.8984375 35.8750049,13.999999 34.890625,14.203125 C33.9062451,14.406251 32.9453172,14.7812473 32.0078125,15.328125 C31.1484332,15.8437526 30.4453152,16.5507768 29.8984375,17.4492188 C29.3515598,18.3476607 29.078125,19.4374936 29.078125,20.71875 C29.078125,22.5781343 29.7460871,23.9921827 31.0820312,24.9609375 C32.4179754,25.9296923 34.187489,26.4140625 36.390625,26.4140625 L39.7890625,26.4140625 L39.7890625,28.875 L35.1953125,28.875 C32.6484248,28.875 30.7070379,29.4101509 29.3710938,30.4804688 C28.0351496,31.5507866 27.3671875,33.2343635 27.3671875,35.53125 C27.3671875,37.4062594 27.914057,38.8632761 29.0078125,39.9023438 C30.101568,40.9414114 31.6249902,41.4609375 33.578125,41.4609375 L36.671875,41.4609375 C38.6093847,41.4609375 40.07812,41.9921822 41.078125,43.0546875 C42.07813,44.1171928 42.578125,45.5390536 42.578125,47.3203125 C42.578125,49.2421971 41.7539145,50.9921796 40.1054688,52.5703125 C38.457023,54.1484454 36.4921989,54.9375 34.2109375,54.9375 C32.5703043,54.9375 31.4062534,54.7382832 30.71875,54.3398438 C30.0312466,53.9414043 29.6875,53.3593788 29.6875,52.59375 C29.6875,51.9687469 29.8789043,51.4687519 30.2617188,51.09375 C30.6445332,50.7187481 31.2109337,50.53125 31.9609375,50.53125 C32.3984397,50.53125 32.792967,50.6171866 33.1445312,50.7890625 C33.4960955,50.9609384 33.8046862,51.1562489 34.0703125,51.375 C34.3203137,51.5625009 34.621092,51.804686 34.9726562,52.1015625 C35.3242205,52.398439 35.6562484,52.6249992 35.96875,52.78125 C36.3437519,52.7499998 36.753904,52.660157 37.1992188,52.5117188 C37.6445335,52.3632805 38.0703105,52.1093768 38.4765625,51.75 C38.8984396,51.3906232 39.2343738,50.9726586 39.484375,50.4960938 C39.7343762,50.0195289 39.859375,49.3750041 39.859375,48.5625 C39.859375,47.4218693 39.4960974,46.5781277 38.7695312,46.03125 C38.0429651,45.4843723 37.0000068,45.2109375 35.640625,45.2109375 L31.984375,45.2109375 C29.2968616,45.2109375 27.0937586,44.3906332 25.375,42.75 C23.6562414,41.1093668 22.796875,39.0781371 22.796875,36.65625 C22.796875,35.3437434 23.0585911,34.1445367 23.5820312,33.0585938 C24.1054714,31.9726508 24.8124955,31.0234416 25.703125,30.2109375 C26.5468792,29.4453087 27.5117133,28.8359398 28.5976562,28.3828125 C29.6835992,27.9296852 30.7265575,27.6406256 31.7265625,27.515625 L31.7265625,27.375 C29.3515506,26.984373 27.5468812,26.2031309 26.3125,25.03125 C25.0781188,23.8593691 24.4609375,22.4531332 24.4609375,20.8125 C24.4609375,19.8906204 24.6445294,19.050785 25.0117188,18.2929688 C25.3789081,17.5351525 25.8906217,16.859378 26.546875,16.265625 C27.156253,15.7187473 27.8749959,15.250002 28.703125,14.859375 C29.5312541,14.468748 30.398433,14.1406263 31.3046875,13.875 L31.3046875,13.4765625 C30.6796844,13.4921876 29.8671925,13.5234373 28.8671875,13.5703125 C27.8671825,13.6171877 27.0078161,13.640625 26.2890625,13.640625 C24.8203052,13.640625 23.7382847,13.4335958 23.0429688,13.0195312 C22.3476528,12.6054667 22,12.0156288 22,11.25 C22,10.640622 22.1601546,10.1132835 22.4804688,9.66796875 C22.8007829,9.22265402 23.3437462,9 24.109375,9 C24.8281286,9 25.4414037,9.14062359 25.9492188,9.421875 C26.4570338,9.70312641 26.9296853,10.0078109 27.3671875,10.3359375 C27.86719,10.7109394 28.3046856,11.0273425 28.6796875,11.2851562 C29.0546894,11.54297 29.6249962,11.671875 30.390625,11.671875 C32.0781334,11.671875 33.9023339,11.6250005 35.8632812,11.53125 C37.8242286,11.4374995 39.5624924,11.3437505 41.078125,11.25 Z" id="ξ"></path>
        </g>
    </g>
</svg>