<?xml version="1.0" encoding="UTF-8"?>
<svg width="64px" height="64px" viewBox="0 0 64 64" version="1.1" xmlns="http://www.w3.org/2000/svg" xmlns:xlink="http://www.w3.org/1999/xlink">
    <!-- Generator: Sketch 48.1 (47250) - http://www.bohemiancoding.com/sketch -->
    <title>Square@64x64</title>
    <desc>Created with Sketch.</desc>
    <defs></defs>
    <g id="Page-1" stroke="none" stroke-width="1" fill="none" fill-rule="evenodd">
        <g id="Square@64x64" fill="#000000">
            <path d="M41.9375,13.40625 C39.93749,14.812507 38.1015709,16.2656175 36.4296875,17.765625 C34.7578041,19.2656325 33.2343819,20.8984287 31.859375,22.6640625 C30.5468684,24.367196 29.4960977,26.1913965 28.7070312,28.1367188 C27.9179648,30.082041 27.5234375,32.0859272 27.5234375,34.1484375 C27.5234375,35.3984437 27.6835921,36.4648393 28.0039062,37.3476562 C28.3242204,38.2304732 28.7734346,38.9531222 29.3515625,39.515625 C29.9296904,40.0625027 30.5937462,40.4609363 31.34375,40.7109375 C32.0937537,40.9609387 32.8984332,41.1015623 33.7578125,41.1328125 C34.0859391,41.1328125 34.4101546,41.1484373 34.7304688,41.1796875 C35.0507829,41.2109377 35.3437487,41.2265625 35.609375,41.2265625 C37.5468847,41.2734377 39.0078076,41.8242135 39.9921875,42.8789062 C40.9765674,43.933599 41.46875,45.3359288 41.46875,47.0859375 C41.46875,48.992197 40.6640705,50.7382733 39.0546875,52.3242188 C37.4453045,53.9101642 35.4609493,54.703125 33.1015625,54.703125 C31.4609293,54.703125 30.2968784,54.5039082 29.609375,54.1054688 C28.9218716,53.7070293 28.578125,53.1250038 28.578125,52.359375 C28.578125,51.7343719 28.7695293,51.2343769 29.1523438,50.859375 C29.5351582,50.4843731 30.1015587,50.296875 30.8515625,50.296875 C31.2890647,50.296875 31.683592,50.3828116 32.0351562,50.5546875 C32.3867205,50.7265634 32.6953112,50.9218739 32.9609375,51.140625 C33.2109387,51.3281259 33.511717,51.570311 33.8632812,51.8671875 C34.2148455,52.164064 34.5468734,52.3906242 34.859375,52.546875 C35.2343769,52.5156248 35.644529,52.425782 36.0898438,52.2773438 C36.5351585,52.1289055 36.9609355,51.8750018 37.3671875,51.515625 C37.7890646,51.1562482 38.1249987,50.7382836 38.375,50.2617188 C38.6250013,49.7851539 38.75,49.1406291 38.75,48.328125 C38.75,47.2031194 38.4140659,46.3789089 37.7421875,45.8554688 C37.0703091,45.3320286 36.0156322,45.0390628 34.578125,44.9765625 C34.0937476,44.9609374 33.7265637,44.9453126 33.4765625,44.9296875 C33.2265613,44.9140624 32.8125029,44.8984376 32.234375,44.8828125 C29.5312365,44.8046871 27.3164149,43.8906337 25.5898438,42.140625 C23.8632726,40.3906163 23,38.1406388 23,35.390625 C23,33.4687404 23.3476528,31.609384 24.0429688,29.8125 C24.7382847,28.015616 25.7421809,26.218759 27.0546875,24.421875 C28.2890687,22.7343666 29.7734288,21.0507896 31.5078125,19.3710938 C33.2421962,17.6913979 35.2343637,15.9062595 37.484375,14.015625 L37.484375,13.7578125 L28.859375,13.8515625 C27.2812421,13.8671876 26.1328161,13.6328149 25.4140625,13.1484375 C24.6953089,12.6640601 24.3359375,12.0390663 24.3359375,11.2734375 C24.3359375,10.6640595 24.5078108,10.1328148 24.8515625,9.6796875 C25.1953142,9.22656023 25.7499962,9 26.515625,9 C27.2812538,9 27.9101538,9.14062359 28.4023438,9.421875 C28.8945337,9.70312641 29.3515604,10.0156233 29.7734375,10.359375 C30.2421898,10.7343769 30.6562482,11.05078 31.015625,11.3085938 C31.3750018,11.5664075 31.9453086,11.6953125 32.7265625,11.6953125 C34.4140709,11.6953125 35.9999926,11.6445318 37.484375,11.5429688 C38.9687574,11.4414057 40.4531176,11.3437505 41.9375,11.25 L41.9375,13.40625 Z" id="ζ"></path>
        </g>
    </g>
</svg>