<?xml version="1.0" encoding="UTF-8"?>
<svg width="64px" height="64px" viewBox="0 0 64 64" version="1.1" xmlns="http://www.w3.org/2000/svg" xmlns:xlink="http://www.w3.org/1999/xlink">
    <!-- Generator: Sketch 48.1 (47250) - http://www.bohemiancoding.com/sketch -->
    <title>Square@64x64</title>
    <desc>Created with Sketch.</desc>
    <defs></defs>
    <g id="Page-1" stroke="none" stroke-width="1" fill="none" fill-rule="evenodd">
        <g id="Square@64x64" fill="#000000">
            <path d="M27.15625,19.3671875 C26.6562475,19.3203123 26.0820345,19.296875 25.4335938,19.296875 C24.785153,19.296875 24.3281263,19.2890626 24.0625,19.2734375 C23.2812461,19.2421873 22.6796896,18.9570339 22.2578125,18.4179688 C21.8359354,17.8789036 21.625,17.3203154 21.625,16.7421875 C21.625,16.039059 21.8984348,15.4062528 22.4453125,14.84375 C22.9921902,14.2812472 23.7734324,14 24.7890625,14 C26.0546938,14 27.132808,14.3984335 28.0234375,15.1953125 C28.914067,15.9921915 29.6796843,17.3203032 30.3203125,19.1796875 C31.0390661,21.2421978 31.7890586,23.3398331 32.5703125,25.4726562 C33.3515664,27.6054794 34.1093713,29.7187395 34.84375,31.8125 C35.7656296,34.3906379 36.6289022,36.8163949 37.4335938,39.0898438 C38.2382853,41.3632926 38.937497,43.2265552 39.53125,44.6796875 C40.1562531,46.2109452 40.6835916,47.2148414 41.1132812,47.6914062 C41.5429709,48.1679711 42.2890572,48.40625 43.3515625,48.40625 L44.40625,48.40625 L44.40625,49.90625 C43.6249961,50.1406262 42.9257843,50.3476554 42.3085938,50.5273438 C41.6914032,50.7070321 41.0312535,50.796875 40.328125,50.796875 C39.6718717,50.796875 39.1367208,50.6718762 38.7226562,50.421875 C38.3085917,50.1718738 37.9453141,49.8125023 37.6328125,49.34375 C37.335936,48.8906227 37.0781261,48.3203159 36.859375,47.6328125 C36.6406239,46.9453091 36.4375009,46.2890656 36.25,45.6640625 C35.859373,44.367181 35.3789091,42.5742302 34.8085938,40.2851562 C34.2382784,37.9960823 33.5000045,35.3359527 32.59375,32.3046875 C31.5468698,34.3671978 30.3632879,36.8242045 29.0429688,39.6757812 C27.7226496,42.527358 26.6562541,44.7812417 25.84375,46.4375 C25.437498,47.2500041 25.1367197,47.9453096 24.9414062,48.5234375 C24.7460928,49.1015654 24.546876,49.7031219 24.34375,50.328125 L19,50.328125 L30.4609375,27.171875 C29.9296848,25.3593659 29.4023464,23.8515685 28.8789062,22.6484375 C28.3554661,21.4453065 27.7812531,20.3515674 27.15625,19.3671875 Z" id="λ"></path>
        </g>
    </g>
</svg>