<?xml version="1.0" encoding="UTF-8"?>
<svg width="64px" height="64px" viewBox="0 0 64 64" version="1.1" xmlns="http://www.w3.org/2000/svg" xmlns:xlink="http://www.w3.org/1999/xlink">
    <!-- Generator: Sketch 48.1 (47250) - http://www.bohemiancoding.com/sketch -->
    <title>Square@64x64</title>
    <desc>Created with Sketch.</desc>
    <defs></defs>
    <g id="Page-1" stroke="none" stroke-width="1" fill="none" fill-rule="evenodd">
        <g id="Square@64x64" fill="#000000">
            <path d="M24.3203125,38.984375 C25.0859413,37.4062421 25.6953102,35.4843863 26.1484375,33.21875 C26.6015648,30.9531137 26.828125,28.5547002 26.828125,26.0234375 C26.828125,25.5546852 26.8203126,25.015628 26.8046875,24.40625 C26.7890624,23.796872 26.7656252,23.2812521 26.734375,22.859375 L25.28125,22.859375 C24.4531209,22.859375 23.789065,22.9999986 23.2890625,23.28125 C22.78906,23.5625014 22.3750016,23.9296852 22.046875,24.3828125 C21.7812487,24.7421893 21.5742195,25.2031222 21.4257812,25.765625 C21.277343,26.3281278 21.1718753,26.9374967 21.109375,27.59375 L19.6328125,27.59375 C19.5859373,27.1562478 19.5468752,26.7226584 19.515625,26.2929688 C19.4843748,25.8632791 19.46875,25.3750027 19.46875,24.828125 C19.46875,24.2968723 19.5703115,23.7656277 19.7734375,23.234375 C19.9765635,22.7031223 20.3124977,22.1796901 20.78125,21.6640625 C21.187502,21.1953102 21.742184,20.8007829 22.4453125,20.4804688 C23.148441,20.1601546 23.9296832,20 24.7890625,20 L44.875,20 L44.875,22.859375 L39.6015625,22.859375 L39.6015625,38.1875 C39.6015625,39.1250047 39.8945283,39.871091 40.4804688,40.4257812 C41.0664092,40.9804715 41.9062445,41.2578125 43,41.2578125 C43.2187511,41.2578125 43.4804672,41.2500001 43.7851562,41.234375 C44.0898453,41.2187499 44.3593738,41.2031251 44.59375,41.1875 L44.59375,42.6875 C43.8593713,42.9375012 43.1250037,43.1484366 42.390625,43.3203125 C41.6562463,43.4921884 40.742193,43.578125 39.6484375,43.578125 C38.1640551,43.578125 37.050785,43.1250045 36.3085938,42.21875 C35.5664025,41.3124955 35.1953125,40.0781328 35.1953125,38.515625 L35.1953125,22.859375 L29.03125,22.859375 C29.0468751,23.265627 29.0624999,23.7617158 29.078125,24.3476562 C29.0937501,24.9335967 29.1015625,25.5624966 29.1015625,26.234375 C29.1015625,28.1718847 28.925783,30.289051 28.5742188,32.5859375 C28.2226545,34.882824 27.7031284,36.8593667 27.015625,38.515625 C26.3437466,40.1406331 25.5781293,41.3945268 24.71875,42.2773438 C23.8593707,43.1601607 22.8593807,43.6015625 21.71875,43.6015625 C20.7812453,43.6015625 20.0937522,43.3007843 19.65625,42.6992188 C19.2187478,42.0976532 19,41.4687533 19,40.8125 C19,40.2499972 19.2070292,39.6992214 19.6210938,39.1601562 C20.0351583,38.6210911 20.6484334,38.3515625 21.4609375,38.3515625 C21.96094,38.3515625 22.4804661,38.4335929 23.0195312,38.5976562 C23.5585964,38.7617196 23.9921859,38.8906245 24.3203125,38.984375 Z" id="π"></path>
        </g>
    </g>
</svg>