<?xml version="1.0" encoding="UTF-8"?>
<svg width="64px" height="64px" viewBox="0 0 64 64" version="1.1" xmlns="http://www.w3.org/2000/svg" xmlns:xlink="http://www.w3.org/1999/xlink">
    <!-- Generator: Sketch 48.1 (47250) - http://www.bohemiancoding.com/sketch -->
    <title>Square@64x64</title>
    <desc>Created with Sketch.</desc>
    <defs></defs>
    <g id="Page-1" stroke="none" stroke-width="1" fill="none" fill-rule="evenodd">
        <g id="Square@64x64" fill="#000000">
            <path d="M43.625,17.7421875 C44.6562552,18.6796922 45.4960905,19.8476493 46.1445312,21.2460938 C46.792972,22.6445382 47.1171875,24.3749897 47.1171875,26.4375 C47.1171875,28.4843852 46.7460975,30.3163982 46.0039062,31.9335938 C45.261715,33.5507893 44.2812561,34.8906197 43.0625,35.953125 C41.859369,37.0312554 40.4804765,37.8671845 38.9257812,38.4609375 C37.371086,39.0546905 35.796883,39.3749998 34.203125,39.421875 L34.203125,49.1484375 L29.84375,49.1484375 L29.84375,39.421875 C25.9218554,39.2499991 22.8007929,38.0586048 20.4804688,35.8476562 C18.1601446,33.6367077 17,30.7812675 17,27.28125 C17,24.1718595 17.8242105,21.570323 19.4726562,19.4765625 C21.121102,17.382802 23.6015459,15.937504 26.9140625,15.140625 L27.265625,17.0390625 C25.4999912,17.6640656 24.164067,18.800773 23.2578125,20.4492188 C22.351558,22.0976645 21.8984375,24.3749855 21.8984375,27.28125 C21.8984375,30.3437653 22.6132741,32.8163968 24.0429688,34.6992188 C25.4726634,36.5820407 27.4062378,37.5546872 29.84375,37.6171875 L29.84375,20.625 C29.84375,19.624995 30.046873,18.7656286 30.453125,18.046875 C30.859377,17.3281214 31.3984341,16.7343773 32.0703125,16.265625 C32.6640655,15.8437479 33.4062455,15.5273448 34.296875,15.3164062 C35.1875045,15.1054677 36.0078087,15 36.7578125,15 C37.9453184,15 39.1445252,15.2304664 40.3554688,15.6914062 C41.5664123,16.1523461 42.6562452,16.835933 43.625,17.7421875 Z M42.21875,26.25 C42.21875,23.3124853 41.7148488,21.0039146 40.7070312,19.3242188 C39.6992137,17.6445229 38.4296952,16.8046875 36.8984375,16.8046875 C36.1484337,16.8046875 35.5117214,17.0507788 34.9882812,17.5429688 C34.4648411,18.0351587 34.203125,18.7031208 34.203125,19.546875 L34.203125,37.6171875 C36.8593883,37.4296866 38.8593683,36.3046978 40.203125,34.2421875 C41.5468817,32.1796772 42.21875,29.5156413 42.21875,26.25 Z" id="φ"></path>
        </g>
    </g>
</svg>