<?xml version="1.0" encoding="UTF-8"?>
<svg width="64px" height="64px" viewBox="0 0 64 64" version="1.1" xmlns="http://www.w3.org/2000/svg" xmlns:xlink="http://www.w3.org/1999/xlink">
    <!-- Generator: Sketch 48.1 (47250) - http://www.bohemiancoding.com/sketch -->
    <title>Square@64x64</title>
    <desc>Created with Sketch.</desc>
    <defs></defs>
    <g id="Page-1" stroke="none" stroke-width="1" fill="none" fill-rule="evenodd">
        <g id="Square@64x64" fill="#000000">
            <path d="M53.6930085,33.1046566 C51.3709836,33.932309 48.686901,35.8174891 45.6406802,38.7602534 C42.5944594,41.7030176 40.1057918,44.6227477 38.1746028,47.5195312 L34.6226121,47.5195312 C35.3812935,46.1171202 36.6802286,44.2089501 38.5194562,41.7949638 L9,41.7949638 L9,38.4153999 L41.2782839,38.4153999 C43.7842316,35.5186163 45.9223016,33.4725063 47.6925583,32.2770083 C45.9223016,31.0815103 43.7842316,29.0354003 41.2782839,26.1386167 L9,26.1386167 L9,22.7245674 L38.5194562,22.7245674 C36.6802286,20.3105812 35.3812935,18.4024111 34.6226121,17 L38.1746028,17 C40.1057918,19.8967836 42.5944594,22.8165137 45.6406802,25.7592779 C48.686901,28.7020421 51.3709836,30.5872222 53.6930085,31.4148746 L53.6930085,33.1046566 Z" id="⇒" transform="translate(31.346504, 32.259766) scale(1, -1) rotate(-270.000000) translate(-31.346504, -32.259766) "></path>
        </g>
        <path d="" id="Path-2" stroke="#979797"></path>
    </g>
</svg>