<?xml version="1.0" encoding="UTF-8"?>
<svg width="64px" height="64px" viewBox="0 0 64 64" version="1.1" xmlns="http://www.w3.org/2000/svg" xmlns:xlink="http://www.w3.org/1999/xlink">
    <!-- Generator: Sketch 48.1 (47250) - http://www.bohemiancoding.com/sketch -->
    <title>Square@64x64</title>
    <desc>Created with Sketch.</desc>
    <defs></defs>
    <g id="Page-1" stroke="none" stroke-width="1" fill="none" fill-rule="evenodd">
        <g id="Square@64x64" fill="#000000">
            <path d="M10,27.0556736 L41.8894226,27.0556736 C40.444954,25.1667531 39.6671632,24.0556234 38.389364,21.7778075 L41.6671967,20 C43.1672218,23.0556067 44.000569,24.3334059 45.6672636,26.2778828 C47.8339665,28.8334812 49.722887,30.4446192 53.7785105,33.278 C49.722887,36.1113808 47.8339665,37.7225188 45.6672636,40.2781172 C44.000569,42.2225941 43.1672218,43.5003933 41.6671967,46.556 L38.389364,44.7781925 C39.5560502,42.778159 40.333841,41.6114728 41.8894226,39.5558828 L10,39.5558828 L10,36.0002678 L44.8339163,36.0002678 C46.0006025,34.9446946 46.6672803,34.3891297 48.2228619,33.278 C46.6672803,32.2224268 45.945046,31.6668619 44.8339163,30.6112887 L10,30.6112887 L10,27.0556736 Z" id="⇒" transform="translate(31.889255, 33.278000) rotate(-180.000000) translate(-31.889255, -33.278000) "></path>
        </g>
        <path d="" id="Path-2" stroke="#979797"></path>
    </g>
</svg>