<?xml version="1.0" encoding="UTF-8"?>
<svg width="64px" height="64px" viewBox="0 0 64 64" version="1.1" xmlns="http://www.w3.org/2000/svg" xmlns:xlink="http://www.w3.org/1999/xlink">
    <!-- Generator: Sketch 48.1 (47250) - http://www.bohemiancoding.com/sketch -->
    <title>Square@64x64</title>
    <desc>Created with Sketch.</desc>
    <defs></defs>
    <g id="Page-1" stroke="none" stroke-width="1" fill="none" fill-rule="evenodd">
        <g id="Square@64x64" fill="#000000">
            <path d="M44.375,37.6640625 C43.6406213,37.9296888 42.9570344,38.1445304 42.3242188,38.3085938 C41.6914031,38.4726571 41.023441,38.5546875 40.3203125,38.5546875 C39.1015564,38.5546875 38.093754,38.2695341 37.296875,37.6992188 C36.499996,37.1289034 36.000001,36.2109438 35.796875,34.9453125 L35.65625,34.9453125 C35.265623,35.3515645 34.8164088,35.8085912 34.3085938,36.3164062 C33.8007787,36.8242213 33.3046899,37.2109362 32.8203125,37.4765625 C32.2109345,37.8359393 31.5703159,38.1132803 30.8984375,38.3085938 C30.2265591,38.5039072 29.3437555,38.6015625 28.25,38.6015625 C27.3437455,38.6015625 26.4882853,38.4140644 25.6835938,38.0390625 C24.8789022,37.6640606 24.2734395,37.2187526 23.8671875,36.703125 L23.7265625,36.703125 L23.7265625,38.0625 C23.7265625,38.8125038 23.7890619,39.5351528 23.9140625,40.2304688 C24.0390631,40.9257847 24.1796867,41.6484338 24.3359375,42.3984375 C24.4921883,43.1796914 24.6289057,43.8359348 24.7460938,44.3671875 C24.8632818,44.8984402 24.921875,45.4609345 24.921875,46.0546875 C24.921875,46.8828166 24.6328154,47.499998 24.0546875,47.90625 C23.4765596,48.312502 22.890628,48.515625 22.296875,48.515625 C21.6406217,48.515625 21.0937522,48.312502 20.65625,47.90625 C20.2187478,47.499998 20,46.9218787 20,46.171875 C20,45.3593709 20.1328112,44.2226636 20.3984375,42.7617188 C20.6640638,41.3007739 20.8437495,40.171879 20.9375,39.375 C21.0468755,38.4531204 21.1210936,37.6562534 21.1601562,36.984375 C21.1992189,36.3124966 21.21875,35.6250035 21.21875,34.921875 L21.21875,15 L25.671875,15 L25.671875,30.8671875 C25.671875,32.367195 26.0742147,33.589839 26.8789062,34.5351562 C27.6835978,35.4804735 28.687494,35.953125 29.890625,35.953125 C30.7500043,35.953125 31.5273403,35.8281262 32.2226562,35.578125 C32.9179722,35.3281238 33.4765604,35.0390641 33.8984375,34.7109375 C34.3828149,34.3515607 34.7812484,33.9843769 35.09375,33.609375 C35.4062516,33.2343731 35.6249994,32.9296887 35.75,32.6953125 L35.75,15 L40.203125,15 L40.203125,33.375 C40.203125,34.0468784 40.3046865,34.578123 40.5078125,34.96875 C40.7109385,35.359377 41.0468727,35.6718738 41.515625,35.90625 C41.7812513,36.0468757 42.1914035,36.1249999 42.7460938,36.140625 C43.300784,36.1562501 43.8437473,36.1640625 44.375,36.1640625 L44.375,37.6640625 Z" id="μ"></path>
        </g>
    </g>
</svg>