<?xml version="1.0" encoding="UTF-8"?>
<svg width="64px" height="64px" viewBox="0 0 64 64" version="1.1" xmlns="http://www.w3.org/2000/svg" xmlns:xlink="http://www.w3.org/1999/xlink">
    <!-- Generator: Sketch 48.1 (47250) - http://www.bohemiancoding.com/sketch -->
    <title>Square@64x64</title>
    <desc>Created with Sketch.</desc>
    <defs></defs>
    <g id="Page-1" stroke="none" stroke-width="1" fill="none" fill-rule="evenodd">
        <g id="Square@64x64" fill="#000000">
            <path d="M39.3046875,26.671875 C40.2890674,27.5625045 41.0351537,28.6367125 41.5429688,29.8945312 C42.0507838,31.15235 42.3046875,32.5390549 42.3046875,34.0546875 C42.3046875,37.3828291 41.2617292,40.1874886 39.1757812,42.46875 C37.0898333,44.7500114 34.4375161,45.890625 31.21875,45.890625 C29.8593682,45.890625 28.7148484,45.7265641 27.7851562,45.3984375 C26.8554641,45.0703109 26.1171902,44.7109395 25.5703125,44.3203125 L25.3828125,44.3203125 L25.3828125,55.734375 L21,55.734375 L21,21.796875 C21,19.4531133 21.1757795,17.5937569 21.5273438,16.21875 C21.878908,14.8437431 22.7109309,13.4609445 24.0234375,12.0703125 C24.8828168,11.1484329 25.9687434,10.4062528 27.28125,9.84375 C28.5937566,9.28124719 30.0703043,9 31.7109375,9 C32.9296936,9 34.085932,9.14843602 35.1796875,9.4453125 C36.273443,9.74218898 37.2499957,10.2109343 38.109375,10.8515625 C38.9687543,11.4765656 39.6406226,12.261714 40.125,13.2070312 C40.6093774,14.1523485 40.8515625,15.3046807 40.8515625,16.6640625 C40.8515625,17.9140687 40.6171898,18.9999954 40.1484375,19.921875 C39.6796852,20.8437546 39.1093784,21.5859347 38.4375,22.1484375 C37.7812467,22.7265654 37.0390666,23.1874983 36.2109375,23.53125 C35.3828084,23.8750017 34.6328159,24.0859371 33.9609375,24.1640625 L34.0546875,24.375 C34.7734411,24.4218752 35.6289013,24.6367168 36.6210938,25.0195312 C37.6132862,25.4023457 38.5078085,25.9531214 39.3046875,26.671875 Z M37.40625,34.1484375 C37.40625,33.054682 37.3164071,31.9531305 37.1367188,30.84375 C36.9570304,29.7343695 36.6484397,28.8125037 36.2109375,28.078125 C35.7421852,27.3124962 35.1054728,26.7109397 34.3007812,26.2734375 C33.4960897,25.8359353 32.4609438,25.6171875 31.1953125,25.6171875 L28.9921875,25.6171875 L28.9921875,23.390625 L30.5859375,23.390625 C31.2734409,23.390625 31.9882775,23.2695325 32.7304688,23.0273438 C33.47266,22.785155 34.1093723,22.414065 34.640625,21.9140625 C35.250003,21.3515597 35.7265608,20.6875038 36.0703125,19.921875 C36.4140642,19.1562462 36.5859375,18.1250065 36.5859375,16.828125 C36.5859375,14.8906153 36.1171922,13.3984427 35.1796875,12.3515625 C34.2421828,11.3046823 33.0156326,10.78125 31.5,10.78125 C30.5937455,10.78125 29.7929722,10.929686 29.0976562,11.2265625 C28.4023403,11.523439 27.7578155,12.0703085 27.1640625,12.8671875 C26.6171848,13.6015662 26.1835954,14.617181 25.8632812,15.9140625 C25.5429671,17.210944 25.3828125,18.7421787 25.3828125,20.5078125 L25.3828125,40.4296875 C25.7109391,41.4296925 26.374995,42.3046837 27.375,43.0546875 C28.375005,43.8046913 29.523431,44.1796875 30.8203125,44.1796875 C32.8203225,44.1796875 34.4179628,43.2851652 35.6132812,41.4960938 C36.8085997,39.7070223 37.40625,37.257828 37.40625,34.1484375 Z" id="β"></path>
        </g>
    </g>
</svg>