<?xml version="1.0" encoding="UTF-8"?>
<svg width="64px" height="64px" viewBox="0 0 64 64" version="1.1" xmlns="http://www.w3.org/2000/svg" xmlns:xlink="http://www.w3.org/1999/xlink">
    <!-- Generator: Sketch 48.1 (47250) - http://www.bohemiancoding.com/sketch -->
    <title>Square@64x64</title>
    <desc>Created with Sketch.</desc>
    <defs></defs>
    <g id="Page-1" stroke="none" stroke-width="1" fill="none" fill-rule="evenodd">
        <g id="Square@64x64" fill="#000000">
            <path d="M33.484375,32.4140625 C34.6250057,34.8203245 35.6210895,36.8593666 36.4726562,38.53125 C37.324223,40.2031334 38.0781217,41.585932 38.734375,42.6796875 C39.7187549,44.3203207 40.5117157,45.3593728 41.1132812,45.796875 C41.7148468,46.2343772 42.5234324,46.453125 43.5390625,46.453125 L44.8515625,46.453125 L44.8515625,47.953125 C44.1015587,48.1875012 43.3593787,48.3945304 42.625,48.5742188 C41.8906213,48.7539071 41.1718785,48.84375 40.46875,48.84375 C39.8281218,48.84375 39.2773461,48.7226575 38.8164062,48.4804688 C38.3554664,48.23828 37.9375019,47.8828148 37.5625,47.4140625 C37.2031232,46.9609352 36.8671891,46.4140657 36.5546875,45.7734375 C36.2421859,45.1328093 35.9296891,44.4453162 35.6171875,43.7109375 C35.117185,42.5390566 34.5898465,41.2382884 34.0351562,39.8085938 C33.480466,38.3788991 32.8281287,36.7343843 32.078125,34.875 C31.1406203,36.5937586 30.1328179,38.4726461 29.0546875,40.5117188 C27.9765571,42.5507914 27.2031273,44.023433 26.734375,44.9296875 C26.343748,45.6796912 25.9960953,46.3671844 25.6914062,46.9921875 C25.3867172,47.6171906 25.1093763,48.234372 24.859375,48.84375 L19.5859375,48.84375 L29.8515625,31.03125 C28.3984302,28.0468601 27.2656291,25.8007888 26.453125,24.2929688 C25.6406209,22.7851487 24.882816,21.4609432 24.1796875,20.3203125 C23.4921841,19.1796818 22.7617226,18.4335955 21.9882812,18.0820312 C21.2148399,17.730467 20.2187561,17.5546875 19,17.5546875 L19,16.0546875 C19.5468777,15.8671866 20.2773392,15.6445325 21.1914062,15.3867188 C22.1054733,15.128905 22.8203099,15 23.3359375,15 C23.9765657,15 24.5273414,15.1328112 24.9882812,15.3984375 C25.4492211,15.6640638 25.8359359,16.0156228 26.1484375,16.453125 C26.4609391,16.9062523 26.7460925,17.4218721 27.0039062,18 C27.26172,18.5781279 27.5546859,19.2890583 27.8828125,20.1328125 C28.4453153,21.5703197 28.8867171,22.7109333 29.2070312,23.5546875 C29.5273454,24.3984417 30.2031198,26.0859248 31.234375,28.6171875 C32.0468791,27.11718 32.9570262,25.3828223 33.9648438,23.4140625 C34.9726613,21.4453027 35.6953103,20.0546916 36.1328125,19.2421875 C36.4453141,18.6796847 36.7656234,18.0703158 37.09375,17.4140625 C37.4218766,16.7578092 37.7343735,16.0625037 38.03125,15.328125 L43.3046875,15.328125 L33.484375,32.4140625 Z" id="χ"></path>
        </g>
    </g>
</svg>