<?xml version="1.0" encoding="UTF-8"?>
<svg width="64px" height="64px" viewBox="0 0 64 64" version="1.1" xmlns="http://www.w3.org/2000/svg" xmlns:xlink="http://www.w3.org/1999/xlink">
    <!-- Generator: Sketch 48.1 (47250) - http://www.bohemiancoding.com/sketch -->
    <title>Square@64x64</title>
    <desc>Created with Sketch.</desc>
    <defs></defs>
    <g id="Page-1" stroke="none" stroke-width="1" fill="none" fill-rule="evenodd">
        <g id="Square@64x64" fill="#000000">
            <path d="M42.0625,37.8359375 C40.9999947,40.0390735 39.5898525,41.6874945 37.8320312,42.78125 C36.07421,43.8750055 34.1171983,44.421875 31.9609375,44.421875 C30.6953062,44.421875 29.4726621,44.29297 28.2929688,44.0351562 C27.1132754,43.7773425 26.0468798,43.3593779 25.09375,42.78125 C24.1562453,42.2187472 23.4062528,41.5000044 22.84375,40.625 C22.2812472,39.7499956 22,38.7343808 22,37.578125 C22,36.5312448 22.203123,35.6445349 22.609375,34.9179688 C23.015627,34.1914026 23.5546841,33.5703151 24.2265625,33.0546875 C24.8671907,32.5859352 25.5703087,32.2421886 26.3359375,32.0234375 C27.1015663,31.8046864 27.8671837,31.6718752 28.6328125,31.625 L28.6328125,31.390625 C27.4609316,31.187499 26.4843789,30.8828145 25.703125,30.4765625 C24.9218711,30.0703105 24.3203146,29.6250024 23.8984375,29.140625 C23.4765604,28.6406225 23.1875008,28.1171902 23.03125,27.5703125 C22.8749992,27.0234348 22.796875,26.4843777 22.796875,25.953125 C22.796875,25.343747 22.9374986,24.714847 23.21875,24.0664062 C23.5000014,23.4179655 24.0312461,22.7656283 24.8125,22.109375 C25.5156285,21.499997 26.4765564,20.9960957 27.6953125,20.5976562 C28.9140686,20.1992168 30.3671791,20 32.0546875,20 C34.757826,20 36.8515551,20.4882764 38.3359375,21.4648438 C39.8203199,22.4414111 40.5625,23.7578042 40.5625,25.4140625 C40.5625,26.1640662 40.3906267,26.8320283 40.046875,27.4179688 C39.7031233,28.0039092 39.1015668,28.296875 38.2421875,28.296875 C37.3203079,28.296875 36.6132837,28.074221 36.1210938,27.6289062 C35.6289038,27.1835915 35.3828125,26.6796903 35.3828125,26.1171875 C35.3828125,25.5390596 35.4374995,24.9843777 35.546875,24.453125 C35.6562505,23.9218723 35.757812,23.3671904 35.8515625,22.7890625 C35.5390609,22.5234362 35.0234411,22.2890635 34.3046875,22.0859375 C33.5859339,21.8828115 32.8515662,21.78125 32.1015625,21.78125 C30.6796804,21.78125 29.5625041,22.1914021 28.75,23.0117188 C27.9374959,23.8320354 27.53125,24.7968695 27.53125,25.90625 C27.53125,27.5625083 27.9101525,28.7578088 28.6679688,29.4921875 C29.425785,30.2265662 30.7109284,30.59375 32.5234375,30.59375 L34.46875,30.59375 L34.46875,32.7734375 L31.9375,32.7734375 C30.8906198,32.7734375 30.0351596,32.9062487 29.3710938,33.171875 C28.7070279,33.4375013 28.1796895,33.7812479 27.7890625,34.203125 C27.4140606,34.6250021 27.1562507,35.1054661 27.015625,35.6445312 C26.8749993,36.1835964 26.8046875,36.7265598 26.8046875,37.2734375 C26.8046875,38.8359453 27.3437446,40.015621 28.421875,40.8125 C29.5000054,41.609379 30.8906165,42.0078125 32.59375,42.0078125 C34.3437587,42.0078125 35.8359313,41.6015666 37.0703125,40.7890625 C38.3046937,39.9765584 39.42187,38.6562591 40.421875,36.828125 L42.0625,37.8359375 Z" id="ε"></path>
        </g>
    </g>
</svg>