<?xml version="1.0" encoding="UTF-8"?>
<svg width="64px" height="64px" viewBox="0 0 64 64" version="1.1" xmlns="http://www.w3.org/2000/svg" xmlns:xlink="http://www.w3.org/1999/xlink">
    <!-- Generator: Sketch 48.1 (47250) - http://www.bohemiancoding.com/sketch -->
    <title>Square@64x64</title>
    <desc>Created with Sketch.</desc>
    <defs></defs>
    <g id="Page-1" stroke="none" stroke-width="1" fill="none" fill-rule="evenodd">
        <g id="Square@64x64" fill="#000000">
            <path d="M43.453125,49.1484375 L39.0703125,49.1484375 L39.0703125,22.921875 C39.0703125,21.2656167 38.6640666,19.9960982 37.8515625,19.1132812 C37.0390584,18.2304643 36.0546933,17.7890625 34.8984375,17.7890625 C34.1796839,17.7890625 33.4882846,17.9062488 32.8242188,18.140625 C32.1601529,18.3750012 31.531253,18.7109353 30.9375,19.1484375 C30.4374975,19.4921892 30.0351578,19.8632793 29.7304688,20.2617188 C29.4257797,20.6601582 29.1875009,20.9999986 29.015625,21.28125 L29.015625,38.7421875 L24.65625,38.7421875 L24.65625,20.53125 C24.65625,19.9999973 24.5507823,19.5156272 24.3398438,19.078125 C24.1289052,18.6406228 23.8046897,18.273439 23.3671875,17.9765625 C23.0859361,17.7890616 22.7382833,17.6523442 22.3242188,17.5664062 C21.9101542,17.4804683 21.4687523,17.4218752 21,17.390625 L21,15.8671875 L28.6875,15.3515625 L29.015625,15.6796875 L29.015625,18.9375 L29.1328125,18.9375 C29.4921893,18.5624981 29.9609346,18.1132839 30.5390625,17.5898438 C31.1171904,17.0664036 31.6562475,16.6406266 32.15625,16.3125 C32.7343779,15.9374981 33.4179648,15.6250012 34.2070312,15.375 C34.9960977,15.1249988 35.8671827,15 36.8203125,15 C39.0390736,15 40.6992132,15.6913993 41.8007812,17.0742188 C42.9023493,18.4570382 43.453125,20.2968635 43.453125,22.59375 L43.453125,49.1484375 Z" id="η"></path>
        </g>
    </g>
</svg>