<?xml version="1.0" encoding="UTF-8"?>
<svg width="64px" height="64px" viewBox="0 0 64 64" version="1.1" xmlns="http://www.w3.org/2000/svg" xmlns:xlink="http://www.w3.org/1999/xlink">
    <!-- Generator: Sketch 48.1 (47250) - http://www.bohemiancoding.com/sketch -->
    <title>Square@64x64</title>
    <desc>Created with Sketch.</desc>
    <defs></defs>
    <g id="Page-1" stroke="none" stroke-width="1" fill="none" fill-rule="evenodd">
        <g id="Square@64x64" fill="#000000">
            <path d="M37.15625,20 C38.5156318,20.1093755 39.8359311,20.4296848 41.1171875,20.9609375 C42.3984439,21.4921902 43.5312451,22.2343702 44.515625,23.1875 C45.51563,24.1562548 46.3281219,25.3906175 46.953125,26.890625 C47.5781281,28.3906325 47.890625,30.1718647 47.890625,32.234375 C47.890625,33.9062584 47.6718772,35.4726489 47.234375,36.9335938 C46.7968728,38.3945386 46.1796915,39.6484323 45.3828125,40.6953125 C44.5703084,41.789068 43.6210992,42.6289033 42.5351562,43.2148438 C41.4492133,43.8007842 40.203132,44.09375 38.796875,44.09375 C37.4374932,44.09375 36.2265678,43.7500034 35.1640625,43.0625 C34.1015572,42.3749966 33.1953162,41.4140687 32.4453125,40.1796875 C31.6640586,41.4296937 30.7617239,42.3945279 29.7382812,43.0742188 C28.7148386,43.7539096 27.500007,44.09375 26.09375,44.09375 C24.7343682,44.09375 23.4960993,43.7929718 22.3789062,43.1914062 C21.2617132,42.5898407 20.3046915,41.7578178 19.5078125,40.6953125 C18.7109335,39.6484323 18.0937522,38.3945386 17.65625,36.9335938 C17.2187478,35.4726489 17,33.9062584 17,32.234375 C17,30.1874898 17.3046845,28.4296948 17.9140625,26.9609375 C18.5234405,25.4921802 19.3437448,24.2421927 20.375,23.2109375 C21.3906301,22.2265576 22.5351499,21.4765651 23.8085938,20.9609375 C25.0820376,20.4453099 26.3906183,20.1250006 27.734375,20 L28.0859375,21.875 C26.9609319,22.0156257 26.000004,22.3867157 25.203125,22.9882812 C24.406246,23.5898468 23.757815,24.3593703 23.2578125,25.296875 C22.7890602,26.1875045 22.433595,27.3320243 22.1914062,28.7304688 C21.9492175,30.1289132 21.828125,31.5624927 21.828125,33.03125 C21.828125,34.2187559 21.9101554,35.3515571 22.0742188,36.4296875 C22.2382821,37.5078179 22.4921858,38.4765582 22.8359375,39.3359375 C23.1953143,40.1953168 23.671872,40.8828099 24.265625,41.3984375 C24.859378,41.9140651 25.5703084,42.171875 26.3984375,42.171875 C27.6796939,42.171875 28.6406218,41.7617229 29.28125,40.9414062 C29.9218782,40.1210896 30.2421875,38.6953227 30.2421875,36.6640625 L30.2421875,28.015625 L34.6484375,28.015625 L34.6484375,36.6640625 C34.6484375,38.6484474 34.9648406,40.0624958 35.5976562,40.90625 C36.2304719,41.7500042 37.195306,42.171875 38.4921875,42.171875 C39.3359417,42.171875 40.0546845,41.9101589 40.6484375,41.3867188 C41.2421905,40.8632786 41.7109358,40.1796917 42.0546875,39.3359375 C42.4296894,38.4140579 42.6914055,37.4414114 42.8398438,36.4179688 C42.988282,35.3945261 43.0625,34.2656312 43.0625,33.03125 C43.0625,31.4531171 42.9492199,30.0078191 42.7226562,28.6953125 C42.4960926,27.3828059 42.132815,26.2500048 41.6328125,25.296875 C41.1015598,24.29687 40.457035,23.519534 39.6992188,22.9648438 C38.9414025,22.4101535 37.9765684,22.0468759 36.8046875,21.875 L37.15625,20 Z" id="ω"></path>
        </g>
    </g>
</svg>