<?xml version="1.0" encoding="UTF-8"?>
<svg width="64px" height="64px" viewBox="0 0 64 64" version="1.1" xmlns="http://www.w3.org/2000/svg" xmlns:xlink="http://www.w3.org/1999/xlink">
    <!-- Generator: Sketch 48.1 (47250) - http://www.bohemiancoding.com/sketch -->
    <title>Square@64x64</title>
    <desc>Created with Sketch.</desc>
    <defs></defs>
    <g id="Page-1" stroke="none" stroke-width="1" fill="none" fill-rule="evenodd">
        <g id="Square@64x64" fill="#000000">
            <path d="M43.5703125,31.9765625 C43.5703125,33.6015706 43.3125026,35.1992109 42.796875,36.7695312 C42.2812474,38.3398516 41.5468798,39.6718695 40.59375,40.765625 C39.5156196,42.0156312 38.2656321,42.9453095 36.84375,43.5546875 C35.4218679,44.1640655 33.8281338,44.46875 32.0625,44.46875 C30.5937427,44.46875 29.1953191,44.191409 27.8671875,43.6367188 C26.5390559,43.0820285 25.3593802,42.2734428 24.328125,41.2109375 C23.3124949,40.1640573 22.5039093,38.8867263 21.9023438,37.3789062 C21.3007782,35.8710862 21,34.1796969 21,32.3046875 C21,28.6952945 22.0507707,25.742199 24.1523438,23.4453125 C26.2539168,21.148426 29.0077955,20 32.4140625,20 C35.6484537,20 38.3163957,21.0898329 40.4179688,23.2695312 C42.5195418,25.4492296 43.5703125,28.3515444 43.5703125,31.9765625 Z M38.71875,32.0234375 C38.71875,30.8515566 38.6015637,29.6132878 38.3671875,28.3085938 C38.1328113,27.0038997 37.7812523,25.898442 37.3125,24.9921875 C36.8124975,24.0234327 36.1562541,23.2460967 35.34375,22.6601562 C34.5312459,22.0742158 33.5390684,21.78125 32.3671875,21.78125 C31.1640565,21.78125 30.136723,22.078122 29.2851562,22.671875 C28.4335895,23.265628 27.7421902,24.0781198 27.2109375,25.109375 C26.710935,26.0625048 26.359376,27.1484314 26.15625,28.3671875 C25.953124,29.5859436 25.8515625,30.7656193 25.8515625,31.90625 C25.8515625,33.4062575 25.972655,34.7929624 26.2148438,36.0664062 C26.4570325,37.3398501 26.8437473,38.4765575 27.375,39.4765625 C27.9062527,40.4765675 28.5742147,41.2617159 29.3789062,41.8320312 C30.1835978,42.4023466 31.1796816,42.6875 32.3671875,42.6875 C34.3203223,42.6875 35.8671818,41.742197 37.0078125,39.8515625 C38.1484432,37.960928 38.71875,35.3515791 38.71875,32.0234375 Z" id="ο"></path>
        </g>
    </g>
</svg>