<?xml version="1.0" encoding="UTF-8"?>
<svg width="64px" height="64px" viewBox="0 0 64 64" version="1.1" xmlns="http://www.w3.org/2000/svg" xmlns:xlink="http://www.w3.org/1999/xlink">
    <!-- Generator: Sketch 48.1 (47250) - http://www.bohemiancoding.com/sketch -->
    <title>Square@64x64</title>
    <desc>Created with Sketch.</desc>
    <defs></defs>
    <g id="Page-1" stroke="none" stroke-width="1" fill="none" fill-rule="evenodd">
        <g id="Square@64x64" fill="#000000">
            <path d="M48.90625,22.6640625 C48.90625,24.6953227 48.683596,26.6523343 48.2382812,28.5351562 C47.7929665,30.4179782 47.0781299,32.1015551 46.09375,33.5859375 C45.093745,35.085945 43.8242264,36.3320263 42.2851562,37.3242188 C40.7460861,38.3164112 38.8593862,38.9374988 36.625,39.1875 L36.625,48.9375 L32.265625,48.9375 L32.265625,39.1875 C31.2187448,39.1406248 30.0234442,38.996095 28.6796875,38.7539062 C27.3359308,38.5117175 26.0390687,38.039066 24.7890625,37.3359375 C23.4453058,36.5546836 22.3984413,35.542975 21.6484375,34.3007812 C20.8984338,33.0585875 20.5234375,31.5234466 20.5234375,29.6953125 L20.59375,20.296875 C20.59375,19.4531208 20.4335954,18.8164084 20.1132812,18.3867188 C19.7929671,17.9570291 19.179692,17.7421875 18.2734375,17.7421875 C17.8984356,17.7421875 17.4804711,17.769531 17.0195312,17.8242188 C16.5585914,17.8789065 16.2187511,17.9140624 16,17.9296875 L16,16.4296875 C16.5625028,16.1953113 17.3320264,15.9179704 18.3085938,15.5976562 C19.2851611,15.2773421 20.1015592,15.1171875 20.7578125,15.1171875 C22.2734451,15.1171875 23.3789028,15.515621 24.0742188,16.3125 C24.7695347,17.109379 25.1093751,18.5078025 25.09375,20.5078125 L25.0234375,29.9296875 C25.0078124,31.2421941 25.2460913,32.3984325 25.7382812,33.3984375 C26.2304712,34.3984425 26.9609327,35.2187468 27.9296875,35.859375 C28.6796913,36.3437524 29.4609334,36.6914052 30.2734375,36.9023438 C31.0859416,37.1132823 31.7499974,37.2265624 32.265625,37.2421875 L32.265625,15.421875 L36.625,15.421875 L36.625,37.2421875 C38.1718827,37.1171869 39.5390566,36.7226596 40.7265625,36.0585938 C41.9140684,35.3945279 42.906246,34.5468802 43.703125,33.515625 C44.5156291,32.4531197 45.124998,31.2968812 45.53125,30.046875 C45.937502,28.7968688 46.140625,27.468757 46.140625,26.0625 C46.140625,24.9062442 45.9882828,23.9101604 45.6835938,23.0742188 C45.3789047,22.2382771 44.8593787,21.5234405 44.125,20.9296875 C43.531247,20.4453101 43.0507831,19.9492213 42.6835938,19.4414062 C42.3164044,18.9335912 42.1328125,18.3281285 42.1328125,17.625 C42.1328125,16.7499956 42.38281,16.0937522 42.8828125,15.65625 C43.382815,15.2187478 44.0156212,15 44.78125,15 C45.6093791,15 46.2929661,15.2343727 46.8320312,15.703125 C47.3710964,16.1718773 47.789061,16.7734338 48.0859375,17.5078125 C48.3984391,18.2578162 48.6132807,19.0742143 48.7304688,19.9570312 C48.8476568,20.8398482 48.90625,21.7421829 48.90625,22.6640625 Z" id="ψ"></path>
        </g>
    </g>
</svg>