<?xml version="1.0" encoding="UTF-8"?>
<svg width="64px" height="64px" viewBox="0 0 64 64" version="1.1" xmlns="http://www.w3.org/2000/svg" xmlns:xlink="http://www.w3.org/1999/xlink">
    <!-- Generator: Sketch 48.1 (47250) - http://www.bohemiancoding.com/sketch -->
    <title>Square@64x64</title>
    <desc>Created with Sketch.</desc>
    <defs></defs>
    <g id="Page-1" stroke="none" stroke-width="1" fill="none" fill-rule="evenodd">
        <g id="Square@64x64" fill="#000000">
            <path d="M42.2734375,22.859375 L34.328125,22.859375 L34.328125,35.28125 C34.328125,36.2500048 34.3437498,37.0624967 34.375,37.71875 C34.4062502,38.3750033 34.5390613,38.9374977 34.7734375,39.40625 C34.9921886,39.8750023 35.3164041,40.2226551 35.7460938,40.4492188 C36.1757834,40.6757824 36.8437455,40.7890625 37.75,40.7890625 C38.1718771,40.7890625 38.7187466,40.7460942 39.390625,40.6601562 C40.0625034,40.5742183 40.5468735,40.476563 40.84375,40.3671875 L40.84375,42.078125 C39.8281199,42.5000021 38.9062541,42.8554673 38.078125,43.1445312 C37.2499959,43.4335952 36.1796941,43.578125 34.8671875,43.578125 C33.0390534,43.578125 31.7578162,43.0937548 31.0234375,42.125 C30.2890588,41.1562452 29.921875,39.7734465 29.921875,37.9765625 L29.921875,22.859375 L27.8125,22.859375 C26.9843709,22.859375 26.320315,22.9999986 25.8203125,23.28125 C25.32031,23.5625014 24.9062516,23.9218728 24.578125,24.359375 C24.3124987,24.750002 24.1054695,25.2148411 23.9570312,25.7539062 C23.808593,26.2929714 23.7031253,26.9062466 23.640625,27.59375 L22.1640625,27.59375 C22.1328123,27.2343732 22.0976564,26.7929714 22.0585938,26.2695312 C22.0195311,25.7460911 22,25.2656272 22,24.828125 C22,24.2812473 22.1015615,23.7343777 22.3046875,23.1875 C22.5078135,22.6406223 22.8437477,22.11719 23.3125,21.6171875 C23.7343771,21.1484352 24.2851529,20.7617203 24.9648438,20.4570312 C25.6445346,20.1523422 26.429683,20 27.3203125,20 L42.2734375,20 L42.2734375,22.859375 Z" id="τ"></path>
        </g>
    </g>
</svg>