<?xml version="1.0" encoding="UTF-8"?>
<svg width="64px" height="64px" viewBox="0 0 64 64" version="1.1" xmlns="http://www.w3.org/2000/svg" xmlns:xlink="http://www.w3.org/1999/xlink">
    <!-- Generator: Sketch 48.1 (47250) - http://www.bohemiancoding.com/sketch -->
    <title>Square@64x64</title>
    <desc>Created with Sketch.</desc>
    <defs></defs>
    <g id="Page-1" stroke="none" stroke-width="1" fill="none" fill-rule="evenodd">
        <g id="Square@64x64" fill="#000000">
            <path d="M41,39.5703125 C40.0468702,41.0234448 38.9218815,42.1562459 37.625,42.96875 C36.3281185,43.7812541 34.7656341,44.1875 32.9375,44.1875 C31.8593696,44.1875 30.8085989,44.039064 29.7851562,43.7421875 C28.7617136,43.445311 27.8593789,42.9765657 27.078125,42.3359375 C26.2499959,41.6484341 25.6171897,40.8398484 25.1796875,39.9101562 C24.7421853,38.9804641 24.5234375,37.7578201 24.5234375,36.2421875 L24.59375,25.296875 C24.59375,24.4843709 24.4257829,23.855471 24.0898438,23.4101562 C23.7539046,22.9648415 23.1484419,22.7421875 22.2734375,22.7421875 C21.8984356,22.7421875 21.4804711,22.769531 21.0195312,22.8242188 C20.5585914,22.8789065 20.2187511,22.9140624 20,22.9296875 L20,21.4296875 C20.5625028,21.1953113 21.3320264,20.9179704 22.3085938,20.5976562 C23.2851611,20.2773421 24.1015592,20.1171875 24.7578125,20.1171875 C26.3515705,20.1171875 27.4765592,20.5390583 28.1328125,21.3828125 C28.7890658,22.2265667 29.1093751,23.601553 29.09375,25.5078125 L29.0234375,35.28125 C28.9921873,36.8125077 29.1562482,37.9843709 29.515625,38.796875 C29.8750018,39.6093791 30.304685,40.218748 30.8046875,40.625 C31.2734398,41.015627 31.812497,41.2656245 32.421875,41.375 C33.031253,41.4843755 33.6093723,41.5390625 34.15625,41.5390625 C36.2500105,41.5390625 37.9609309,40.5976657 39.2890625,38.7148438 C40.6171941,36.8320218 41.28125,34.4375145 41.28125,31.53125 C41.28125,30.2812438 41.1093767,29.2226606 40.765625,28.3554688 C40.4218733,27.4882769 39.8359416,26.7187534 39.0078125,26.046875 C38.3984345,25.5468725 37.8750022,24.9921905 37.4375,24.3828125 C36.9999978,23.7734345 36.78125,23.0703165 36.78125,22.2734375 C36.78125,21.6640595 37.0273413,21.1328148 37.5195312,20.6796875 C38.0117212,20.2265602 38.6328088,20 39.3828125,20 C40.289067,20 41.0390595,20.2851534 41.6328125,20.8554688 C42.2265655,21.4257841 42.6718735,22.1249959 42.96875,22.953125 C43.2656265,23.7968792 43.4765619,24.6874953 43.6015625,25.625 C43.7265631,26.5625047 43.7890625,27.5781195 43.7890625,28.671875 C43.7890625,30.6875101 43.5507836,32.667959 43.0742188,34.6132812 C42.5976539,36.5586035 41.9062545,38.2109307 41,39.5703125 Z" id="υ"></path>
        </g>
    </g>
</svg>