<?xml version="1.0" encoding="UTF-8"?>
<svg width="64px" height="64px" viewBox="0 0 64 64" version="1.1" xmlns="http://www.w3.org/2000/svg" xmlns:xlink="http://www.w3.org/1999/xlink">
    <!-- Generator: Sketch 48.1 (47250) - http://www.bohemiancoding.com/sketch -->
    <title>Square@64x64</title>
    <desc>Created with Sketch.</desc>
    <defs></defs>
    <g id="Page-1" stroke="none" stroke-width="1" fill="none" fill-rule="evenodd">
        <g id="Square@64x64" fill="#000000">
            <path d="M55.7597656,32.2907684 C53.7248427,33.0089765 51.385714,34.6448704 48.7423093,37.1984991 C46.0989045,39.7521278 43.9393251,42.2857683 42.2635063,44.7994966 L39.2111372,44.7994966 C39.8495444,43.5825329 40.9667402,41.9266891 42.5627581,39.8319156 L20.9268479,39.8319156 C22.5228659,41.9266891 23.6500366,43.5825329 24.3083941,44.7994966 L21.2260998,44.7994966 C19.5702312,42.2857683 17.4206267,39.7521278 14.777222,37.1984991 C12.1338172,34.6448704 9.79468852,33.0089765 7.75976562,32.2907684 L7.75976562,30.8244343 C9.79468852,30.1062262 12.1338172,28.4703323 14.777222,25.9167036 C17.4206267,23.3630749 19.5702312,20.8294344 21.2260998,18.3157061 L24.3083941,18.3157061 C23.6500366,19.5326698 22.5228659,21.1885136 20.9268479,23.2832871 L42.5627581,23.2832871 C40.9667402,21.1885136 39.8495444,19.5326698 39.2111372,18.3157061 L42.2635063,18.3157061 C43.9393251,20.8294344 46.0989045,23.3630749 48.7423093,25.9167036 C51.385714,28.4703323 53.7248427,30.1062262 55.7597656,30.8244343 L55.7597656,32.2907684 Z M50.5228579,31.572564 C48.9866906,30.5351523 47.1313476,28.7596089 44.9567731,26.2458807 L18.532833,26.2458807 C16.3582585,28.7596089 14.5029155,30.5351523 12.9667482,31.572564 C14.5029155,32.6099756 16.3582585,34.385519 18.532833,36.8992472 L44.9567731,36.8992472 C47.1313476,34.385519 48.9866906,32.6099756 50.5228579,31.572564 Z" id="⇔" transform="translate(31.759766, 31.557601) rotate(-270.000000) translate(-31.759766, -31.557601) "></path>
        </g>
        <path d="" id="Path-2" stroke="#979797"></path>
    </g>
</svg>