<?xml version="1.0" encoding="UTF-8"?>
<svg width="64px" height="64px" viewBox="0 0 64 64" version="1.1" xmlns="http://www.w3.org/2000/svg" xmlns:xlink="http://www.w3.org/1999/xlink">
    <!-- Generator: Sketch 48.1 (47250) - http://www.bohemiancoding.com/sketch -->
    <title>Square@64x64</title>
    <desc>Created with Sketch.</desc>
    <defs></defs>
    <g id="Page-1" stroke="none" stroke-width="1" fill="none" fill-rule="evenodd">
        <g id="Square@64x64" fill="#000000">
            <path d="M43.6116904,38.4447699 L20.7779749,38.4447699 C22.4446695,40.6114728 23.1113473,41.6114895 24.3891464,43.7781925 L21.1113138,45.556 C19.5557322,42.5003933 18.7779414,41.2225941 17.1112469,39.2781172 C14.9445439,36.7225188 13.0556234,35.1113808 9,32.278 C13.0556234,29.4446192 14.9445439,27.8334812 17.1112469,25.2778828 C18.7779414,23.3334059 19.6112887,22.0556067 21.1113138,19 L24.3891464,20.7778075 C23.0557908,23.1111799 22.3335565,24.1667531 20.7779749,26.1667866 L43.6116904,26.1667866 C42.0561088,24.2223096 41.278318,23.0556234 40.0005188,20.7778075 L43.2783515,19 C44.7783766,22.0556067 45.6117238,23.3334059 47.2784184,25.2778828 C49.4451213,27.8334812 51.3340418,29.4446192 55.3896653,32.278 C51.3340418,35.1113808 49.4451213,36.7225188 47.2784184,39.2781172 C45.6117238,41.2225941 44.7783766,42.5003933 43.2783515,45.556 L40.0005188,43.7781925 C41.2227615,41.667046 42.0005523,40.5559163 43.6116904,38.4447699 Z M18.0557071,35.1113808 L46.3339582,35.1113808 C47.5562008,33.9446946 48.3339916,33.3891297 49.8340167,32.278 C48.2228787,31.1668703 47.4450879,30.555749 46.2784017,29.5001757 L18.1112636,29.5001757 C16.7223515,30.7779749 16.0001172,31.2779833 14.5556485,32.278 C16.1112301,33.3891297 16.7779079,33.9446946 18.0557071,35.1113808 Z" id="⇔"></path>
        </g>
        <path d="" id="Path-2" stroke="#979797"></path>
    </g>
</svg>